<svg xmlns="http://www.w3.org/2000/svg" width="960" height="1080"><path d="M400,608L381,646L606,680Z" fill="#64a8d3" stroke="#64a8d3" stroke-width="1.51"/><path d="M381,646L516,810L606,680Z" fill="#5aa1ce" stroke="#5aa1ce" stroke-width="1.51"/><path d="M606,680L568,507L400,608Z" fill="#62a6d2" stroke="#62a6d2" stroke-width="1.51"/><path d="M516,810L719,820L606,680Z" fill="#4895c8" stroke="#4895c8" stroke-width="1.51"/><path d="M302,858L492,929L516,810Z" fill="#589acb" stroke="#589acb" stroke-width="1.51"/><path d="M381,646L302,858L516,810Z" fill="#63a4d0" stroke="#63a4d0" stroke-width="1.51"/><path d="M606,680L839,585L568,507Z" fill="#539ccc" stroke="#539ccc" stroke-width="1.51"/><path d="M618,968L719,820L516,810Z" fill="#428dc4" stroke="#428dc4" stroke-width="1.51"/><path d="M568,507L388,392L400,608Z" fill="#74b2d8" stroke="#74b2d8" stroke-width="1.51"/><path d="M630,328L564,398L568,507Z" fill="#71aed5" stroke="#71aed5" stroke-width="1.51"/><path d="M719,820L791,723L606,680Z" fill="#4290c5" stroke="#4290c5" stroke-width="1.51"/><path d="M400,608L217,430L381,646Z" fill="#7db7d9" stroke="#7db7d9" stroke-width="1.51"/><path d="M381,646L196,868L302,858Z" fill="#72aad2" stroke="#72aad2" stroke-width="1.51"/><path d="M564,398L388,392L568,507Z" fill="#77b3d8" stroke="#77b3d8" stroke-width="1.51"/><path d="M492,929L618,968L516,810Z" fill="#4990c6" stroke="#4990c6" stroke-width="1.51"/><path d="M719,820L848,914L791,723Z" fill="#3683be" stroke="#3683be" stroke-width="1.51"/><path d="M74,633L196,868L381,646Z" fill="#7fb3d8" stroke="#7fb3d8" stroke-width="1.51"/><path d="M564,398L392,367L388,392Z" fill="#82badb" stroke="#82badb" stroke-width="1.51"/><path d="M217,430L400,608L388,392Z" fill="#87bcdc" stroke="#87bcdc" stroke-width="1.51"/><path d="M302,858L263,991L492,929Z" fill="#629bcb" stroke="#629bcb" stroke-width="1.51"/><path d="M492,929L427,1138L618,968Z" fill="#4789c1" stroke="#4789c1" stroke-width="1.51"/><path d="M791,723L839,585L606,680Z" fill="#4792c7" stroke="#4792c7" stroke-width="1.51"/><path d="M198,356L217,430L388,392Z" fill="#99c6e0" stroke="#99c6e0" stroke-width="1.51"/><path d="M564,398L507,246L392,367Z" fill="#84badb" stroke="#84badb" stroke-width="1.51"/><path d="M851,521L630,328L568,507Z" fill="#64a5d0" stroke="#64a5d0" stroke-width="1.51"/><path d="M196,868L263,991L302,858Z" fill="#71a3cf" stroke="#71a3cf" stroke-width="1.51"/><path d="M839,585L851,521L568,507Z" fill="#5399ca" stroke="#5399ca" stroke-width="1.51"/><path d="M217,430L74,633L381,646Z" fill="#8abcdd" stroke="#8abcdd" stroke-width="1.51"/><path d="M791,723L1056,602L839,585Z" fill="#4187c1" stroke="#4187c1" stroke-width="1.51"/><path d="M1007,419L926,338L851,521Z" fill="#5a91c5" stroke="#5a91c5" stroke-width="1.51"/><path d="M618,968L848,914L719,820Z" fill="#3482be" stroke="#3482be" stroke-width="1.51"/><path d="M630,328L507,246L564,398Z" fill="#7eb5d8" stroke="#7eb5d8" stroke-width="1.51"/><path d="M392,367L198,356L388,392Z" fill="#94c4df" stroke="#94c4df" stroke-width="1.51"/><path d="M217,430L-46,402L74,633Z" fill="#a1c8e4" stroke="#a1c8e4" stroke-width="1.51"/><path d="M260,171L198,356L392,367Z" fill="#a1cbe2" stroke="#a1cbe2" stroke-width="1.51"/><path d="M16,803L136,961L196,868Z" fill="#81abd5" stroke="#81abd5" stroke-width="1.51"/><path d="M196,868L136,961L263,991Z" fill="#75a3d0" stroke="#75a3d0" stroke-width="1.51"/><path d="M136,961L297,1094L263,991Z" fill="#6e9bcb" stroke="#6e9bcb" stroke-width="1.51"/><path d="M263,991L297,1094L492,929Z" fill="#5f95c7" stroke="#5f95c7" stroke-width="1.51"/><path d="M618,968L705,1148L848,914Z" fill="#2e7ab9" stroke="#2e7ab9" stroke-width="1.51"/><path d="M297,1094L427,1138L492,929Z" fill="#558ec3" stroke="#558ec3" stroke-width="1.51"/><path d="M74,633L16,803L196,868Z" fill="#89b5da" stroke="#89b5da" stroke-width="1.51"/><path d="M427,1138L705,1148L618,968Z" fill="#3c7fba" stroke="#3c7fba" stroke-width="1.51"/><path d="M630,328L588,97L507,246Z" fill="#87b9db" stroke="#87b9db" stroke-width="1.51"/><path d="M851,521L880,336L630,328Z" fill="#659fcd" stroke="#659fcd" stroke-width="1.51"/><path d="M926,338L880,336L851,521Z" fill="#5f96c8" stroke="#5f96c8" stroke-width="1.51"/><path d="M784,123L588,97L630,328Z" fill="#83b3d9" stroke="#83b3d9" stroke-width="1.51"/><path d="M1056,602L851,521L839,585Z" fill="#4789c1" stroke="#4789c1" stroke-width="1.51"/><path d="M-46,402L-72,692L74,633Z" fill="#9fc6e3" stroke="#9fc6e3" stroke-width="1.51"/><path d="M507,246L260,171L392,367Z" fill="#98c5e0" stroke="#98c5e0" stroke-width="1.51"/><path d="M426,58L260,171L507,246Z" fill="#a0c8e3" stroke="#a0c8e3" stroke-width="1.51"/><path d="M16,803L16,1017L136,961Z" fill="#84a9d5" stroke="#84a9d5" stroke-width="1.51"/><path d="M74,633L-72,692L16,803Z" fill="#94bcde" stroke="#94bcde" stroke-width="1.51"/><path d="M-46,402L217,430L198,356Z" fill="#a8cce5" stroke="#a8cce5" stroke-width="1.51"/><path d="M705,1148L917,1055L848,914Z" fill="#2370b3" stroke="#2370b3" stroke-width="1.51"/><path d="M1113,744L1056,602L791,723Z" fill="#377bb8" stroke="#377bb8" stroke-width="1.51"/><path d="M1057,876L791,723L848,914Z" fill="#2c78b8" stroke="#2c78b8" stroke-width="1.51"/><path d="M1056,602L1007,419L851,521Z" fill="#4c87bf" stroke="#4c87bf" stroke-width="1.51"/><path d="M297,1094L253,1300L427,1138Z" fill="#5d89be" stroke="#5d89be" stroke-width="1.51"/><path d="M136,961L201,1206L297,1094Z" fill="#6e96c7" stroke="#6e96c7" stroke-width="1.51"/><path d="M-139,822L16,1017L16,803Z" fill="#8db0d8" stroke="#8db0d8" stroke-width="1.51"/><path d="M784,123L630,328L880,336Z" fill="#76a8d2" stroke="#76a8d2" stroke-width="1.51"/><path d="M917,1055L1057,876L848,914Z" fill="#206db1" stroke="#206db1" stroke-width="1.51"/><path d="M-5,1064L201,1206L136,961Z" fill="#7a9acb" stroke="#7a9acb" stroke-width="1.51"/><path d="M790,1240L835,1210L705,1148Z" fill="#2267ab" stroke="#2267ab" stroke-width="1.51"/><path d="M44,202L-46,402L198,356Z" fill="#b4d3e8" stroke="#b4d3e8" stroke-width="1.51"/><path d="M588,97L426,58L507,246Z" fill="#96c1e1" stroke="#96c1e1" stroke-width="1.51"/><path d="M1057,876L1113,744L791,723Z" fill="#2d75b5" stroke="#2d75b5" stroke-width="1.51"/><path d="M1056,602L1248,536L1007,419Z" fill="#477cb4" stroke="#477cb4" stroke-width="1.51"/><path d="M926,338L784,123L880,336Z" fill="#709fcd" stroke="#709fcd" stroke-width="1.51"/><path d="M588,97L531,-45L426,58Z" fill="#9cc4e3" stroke="#9cc4e3" stroke-width="1.51"/><path d="M725,-50L784,123L822,-46Z" fill="#8bb0d8" stroke="#8bb0d8" stroke-width="1.51"/><path d="M16,1017L-5,1064L136,961Z" fill="#81a2d1" stroke="#81a2d1" stroke-width="1.51"/><path d="M-213,924L-5,1064L16,1017Z" fill="#89a8d4" stroke="#89a8d4" stroke-width="1.51"/><path d="M-5,1064L191,1232L201,1206Z" fill="#7493c5" stroke="#7493c5" stroke-width="1.51"/><path d="M201,1206L253,1300L297,1094Z" fill="#668bbe" stroke="#668bbe" stroke-width="1.51"/><path d="M1153,1121L1229,922L1057,876Z" fill="#175a9e" stroke="#175a9e" stroke-width="1.51"/><path d="M705,1148L835,1210L917,1055Z" fill="#2068ad" stroke="#2068ad" stroke-width="1.51"/><path d="M790,1240L705,1148L626,1378Z" fill="#2868a7" stroke="#2868a7" stroke-width="1.51"/><path d="M498,1354L705,1148L427,1138Z" fill="#3d78b3" stroke="#3d78b3" stroke-width="1.51"/><path d="M-72,692L-139,822L16,803Z" fill="#94badd" stroke="#94badd" stroke-width="1.51"/><path d="M-260,592L-139,822L-72,692Z" fill="#9fc3e2" stroke="#9fc3e2" stroke-width="1.51"/><path d="M260,171L44,202L198,356Z" fill="#b2d2e8" stroke="#b2d2e8" stroke-width="1.51"/><path d="M78,83L44,202L260,171Z" fill="#bfd8ec" stroke="#bfd8ec" stroke-width="1.51"/><path d="M191,1232L253,1300L201,1206Z" fill="#6889ba" stroke="#6889ba" stroke-width="1.51"/><path d="M203,1476L253,1300L191,1232Z" fill="#6581af" stroke="#6581af" stroke-width="1.51"/><path d="M253,1300L498,1354L427,1138Z" fill="#507db2" stroke="#507db2" stroke-width="1.51"/><path d="M-46,402L-166,415L-72,692Z" fill="#abcee8" stroke="#abcee8" stroke-width="1.51"/><path d="M-221,288L-166,415L-46,402Z" fill="#bcd9ec" stroke="#bcd9ec" stroke-width="1.51"/><path d="M498,1354L626,1378L705,1148Z" fill="#336ca7" stroke="#336ca7" stroke-width="1.51"/><path d="M958,1337L1054,1215L835,1210Z" fill="#12559c" stroke="#12559c" stroke-width="1.51"/><path d="M210,-59L78,83L260,171Z" fill="#bfd8ec" stroke="#bfd8ec" stroke-width="1.51"/><path d="M725,-50L531,-45L588,97Z" fill="#96bedf" stroke="#96bedf" stroke-width="1.51"/><path d="M44,202L-221,288L-46,402Z" fill="#bfdaec" stroke="#bfdaec" stroke-width="1.51"/><path d="M210,-59L260,171L426,58Z" fill="#b4d3e8" stroke="#b4d3e8" stroke-width="1.51"/><path d="M-139,822L-213,924L16,1017Z" fill="#8fb0d8" stroke="#8fb0d8" stroke-width="1.51"/><path d="M-5,1064L-56,1359L191,1232Z" fill="#7a92c3" stroke="#7a92c3" stroke-width="1.51"/><path d="M-260,592L-213,924L-139,822Z" fill="#9dbfe0" stroke="#9dbfe0" stroke-width="1.51"/><path d="M498,1354L486,1430L626,1378Z" fill="#3a699f" stroke="#3a699f" stroke-width="1.51"/><path d="M253,1300L486,1430L498,1354Z" fill="#4a74a6" stroke="#4a74a6" stroke-width="1.51"/><path d="M981,38L784,123L926,338Z" fill="#789fce" stroke="#789fce" stroke-width="1.51"/><path d="M1113,744L1238,578L1056,602Z" fill="#3871ab" stroke="#3871ab" stroke-width="1.51"/><path d="M1229,922L1238,578L1113,744Z" fill="#2b65a0" stroke="#2b65a0" stroke-width="1.51"/><path d="M-166,415L-260,592L-72,692Z" fill="#aacde7" stroke="#aacde7" stroke-width="1.51"/><path d="M784,123L725,-50L588,97Z" fill="#8cb6db" stroke="#8cb6db" stroke-width="1.51"/><path d="M1111,216L926,338L1007,419Z" fill="#648fc2" stroke="#648fc2" stroke-width="1.51"/><path d="M1238,578L1248,536L1056,602Z" fill="#3e71a8" stroke="#3e71a8" stroke-width="1.51"/><path d="M1248,536L1111,216L1007,419Z" fill="#5881b5" stroke="#5881b5" stroke-width="1.51"/><path d="M1057,876L1229,922L1113,744Z" fill="#2464a4" stroke="#2464a4" stroke-width="1.51"/><path d="M1238,578L1229,922L1248,536Z" fill="#32659d" stroke="#32659d" stroke-width="1.51"/><path d="M1153,1121L1057,876L917,1055Z" fill="#165fa7" stroke="#165fa7" stroke-width="1.51"/><path d="M1054,1215L917,1055L835,1210Z" fill="#145da5" stroke="#145da5" stroke-width="1.51"/><path d="M958,1337L835,1210L790,1240Z" fill="#185ba0" stroke="#185ba0" stroke-width="1.51"/><path d="M381,-107L426,58L531,-45Z" fill="#a8cce6" stroke="#a8cce6" stroke-width="1.51"/><path d="M381,-107L210,-59L426,58Z" fill="#b4d4e9" stroke="#b4d4e9" stroke-width="1.51"/><path d="M395,-213L381,-107L531,-45Z" fill="#aed0e9" stroke="#aed0e9" stroke-width="1.51"/><path d="M690,-232L395,-213L531,-45Z" fill="#a6c9e5" stroke="#a6c9e5" stroke-width="1.51"/><path d="M981,38L822,-46L784,123Z" fill="#84a7d4" stroke="#84a7d4" stroke-width="1.51"/><path d="M1054,1215L1153,1121L917,1055Z" fill="#0f57a1" stroke="#0f57a1" stroke-width="1.51"/><path d="M253,1300L376,1547L486,1430Z" fill="#4f72a2" stroke="#4f72a2" stroke-width="1.51"/><path d="M-213,924L-172,1132L-5,1064Z" fill="#8ba7d3" stroke="#8ba7d3" stroke-width="1.51"/><path d="M1111,216L981,38L926,338Z" fill="#7194c6" stroke="#7194c6" stroke-width="1.51"/><path d="M1054,1215L1134,1393L1153,1121Z" fill="#09488f" stroke="#09488f" stroke-width="1.51"/><path d="M728,1522L958,1337L790,1240Z" fill="#1b5695" stroke="#1b5695" stroke-width="1.51"/><path d="M728,1522L790,1240L626,1378Z" fill="#255e98" stroke="#255e98" stroke-width="1.51"/><path d="M-166,415L-221,288L-260,592Z" fill="#bad8ec" stroke="#bad8ec" stroke-width="1.51"/><path d="M-74,65L-221,288L44,202Z" fill="#cadff0" stroke="#cadff0" stroke-width="1.51"/><path d="M-74,65L44,202L78,83Z" fill="#caddf0" stroke="#caddf0" stroke-width="1.51"/><path d="M-91,-46L-74,65L78,83Z" fill="#d2e2f3" stroke="#d2e2f3" stroke-width="1.51"/><path d="M-56,1359L203,1476L191,1232Z" fill="#6f83b0" stroke="#6f83b0" stroke-width="1.51"/><path d="M1176,-150L971,-47L981,38Z" fill="#829aca" stroke="#829aca" stroke-width="1.51"/><path d="M981,38L971,-47L822,-46Z" fill="#85a3d1" stroke="#85a3d1" stroke-width="1.51"/><path d="M690,-232L531,-45L725,-50Z" fill="#99c0e0" stroke="#99c0e0" stroke-width="1.51"/><path d="M-172,1132L-56,1359L-5,1064Z" fill="#8399c9" stroke="#8399c9" stroke-width="1.51"/><path d="M376,1547L728,1522L486,1430Z" fill="#3a699d" stroke="#3a699d" stroke-width="1.51"/><path d="M486,1430L728,1522L626,1378Z" fill="#30639a" stroke="#30639a" stroke-width="1.51"/><path d="M203,1476L376,1547L253,1300Z" fill="#5b79a5" stroke="#5b79a5" stroke-width="1.51"/><path d="M381,-107L353,-229L210,-59Z" fill="#bdd9eb" stroke="#bdd9eb" stroke-width="1.51"/><path d="M210,-59L-91,-46L78,83Z" fill="#cee0f2" stroke="#cee0f2" stroke-width="1.51"/><path d="M690,-232L725,-50L822,-46Z" fill="#93b7dc" stroke="#93b7dc" stroke-width="1.51"/><path d="M1248,536L1220,136L1111,216Z" fill="#607fae" stroke="#607fae" stroke-width="1.51"/><path d="M1111,216L1220,136L981,38Z" fill="#748ebf" stroke="#748ebf" stroke-width="1.51"/><path d="M395,-213L353,-229L381,-107Z" fill="#b8d7eb" stroke="#b8d7eb" stroke-width="1.51"/><path d="M690,-232L353,-229L395,-213Z" fill="#afd0e9" stroke="#afd0e9" stroke-width="1.51"/><path d="M728,1522L793,1548L958,1337Z" fill="#1b5391" stroke="#1b5391" stroke-width="1.51"/><path d="M958,1337L1134,1393L1054,1215Z" fill="#0a488e" stroke="#0a488e" stroke-width="1.51"/><path d="M376,1547L793,1548L728,1522Z" fill="#2e6299" stroke="#2e6299" stroke-width="1.51"/><path d="M793,1548L944,1484L958,1337Z" fill="#144d8d" stroke="#144d8d" stroke-width="1.51"/><path d="M142,-279L-91,-46L210,-59Z" fill="#d4e3f4" stroke="#d4e3f4" stroke-width="1.51"/><path d="M-74,65L-216,50L-221,288Z" fill="#d4e5f4" stroke="#d4e5f4" stroke-width="1.51"/><path d="M865,-291L690,-232L822,-46Z" fill="#95b6db" stroke="#95b6db" stroke-width="1.51"/><path d="M203,1476L-85,1545L376,1547Z" fill="#677da9" stroke="#677da9" stroke-width="1.51"/><path d="M-56,1359L-85,1545L203,1476Z" fill="#7383ad" stroke="#7383ad" stroke-width="1.51"/><path d="M-172,1132L-132,1379L-56,1359Z" fill="#8191bd" stroke="#8191bd" stroke-width="1.51"/><path d="M-206,1476L-132,1379L-172,1132Z" fill="#8390ba" stroke="#8390ba" stroke-width="1.51"/><path d="M-91,-46L-216,50L-74,65Z" fill="#d8e7f5" stroke="#d8e7f5" stroke-width="1.51"/><path d="M-221,288L-216,50L-260,592Z" fill="#c9e0ef" stroke="#c9e0ef" stroke-width="1.51"/><path d="M944,1484L1134,1393L958,1337Z" fill="#0d4486" stroke="#0d4486" stroke-width="1.51"/><path d="M1153,1121L1134,1393L1229,922Z" fill="#0c4a90" stroke="#0c4a90" stroke-width="1.51"/><path d="M-91,-46L-155,-67L-216,50Z" fill="#ddeaf7" stroke="#ddeaf7" stroke-width="1.51"/><path d="M-163,-248L-155,-67L-91,-46Z" fill="#e1edf8" stroke="#e1edf8" stroke-width="1.51"/><path d="M865,-291L142,-279L353,-229Z" fill="#b4d4eb" stroke="#b4d4eb" stroke-width="1.51"/><path d="M353,-229L142,-279L210,-59Z" fill="#c8dfef" stroke="#c8dfef" stroke-width="1.51"/><path d="M971,-47L865,-291L822,-46Z" fill="#8daad6" stroke="#8daad6" stroke-width="1.51"/><path d="M690,-232L865,-291L353,-229Z" fill="#a3c5e3" stroke="#a3c5e3" stroke-width="1.51"/><path d="M1042,-311L865,-291L971,-47Z" fill="#90a7d2" stroke="#90a7d2" stroke-width="1.51"/><path d="M-132,1379L-85,1545L-56,1359Z" fill="#7a87af" stroke="#7a87af" stroke-width="1.51"/><path d="M944,1484L1105,1527L1134,1393Z" fill="#094083" stroke="#094083" stroke-width="1.51"/><path d="M793,1548L1105,1527L944,1484Z" fill="#11498a" stroke="#11498a" stroke-width="1.51"/><path d="M-132,1379L-206,1476L-85,1545Z" fill="#7d88b0" stroke="#7d88b0" stroke-width="1.51"/><path d="M-213,924L-206,1476L-172,1132Z" fill="#8b9fcc" stroke="#8b9fcc" stroke-width="1.51"/><path d="M-260,592L-206,1476L-213,924Z" fill="#94aed7" stroke="#94aed7" stroke-width="1.51"/><path d="M1220,136L1176,-150L981,38Z" fill="#7b90bf" stroke="#7b90bf" stroke-width="1.51"/><path d="M1176,-150L1112,-232L971,-47Z" fill="#8599c7" stroke="#8599c7" stroke-width="1.51"/><path d="M1112,-232L1042,-311L971,-47Z" fill="#8b9fcc" stroke="#8b9fcc" stroke-width="1.51"/><path d="M865,-291L-121,-307L142,-279Z" fill="#c8e1ef" stroke="#c8e1ef" stroke-width="1.51"/><path d="M-121,-307L-163,-248L-91,-46Z" fill="#e5eff9" stroke="#e5eff9" stroke-width="1.51"/><path d="M-155,-67L-163,-248L-216,50Z" fill="#e2edf8" stroke="#e2edf8" stroke-width="1.51"/><path d="M142,-279L-121,-307L-91,-46Z" fill="#dfebf8" stroke="#dfebf8" stroke-width="1.51"/><path d="M1042,-311L-121,-307L865,-291Z" fill="#aacae6" stroke="#aacae6" stroke-width="1.51"/></svg>